<?xml version="1.0" standalone="no"?>
<!DOCTYPE svg PUBLIC "-//W3C//DTD SVG 20010904//EN"
 "http://www.w3.org/TR/2001/REC-SVG-20010904/DTD/svg10.dtd">
<svg version="1.0" xmlns="http://www.w3.org/2000/svg"
 width="200.000000pt" height="200.000000pt" viewBox="0 0 200.000000 200.000000"
 preserveAspectRatio="xMidYMid meet">
<metadata>
Created by potrace 1.14, written by Peter Selinger 2001-2017
</metadata>
<g transform="translate(0.000000,200.000000) scale(0.100000,-0.100000)"
fill="#000000" stroke="none">
<path d="M284 1328 c-3 -5 -10 -6 -15 -2 -16 10 -122 -49 -167 -93 -64 -64
-96 -141 -97 -233 0 -76 21 -170 39 -170 5 0 7 -3 3 -6 -3 -3 4 -17 16 -31 46
-53 75 -83 83 -83 4 0 15 -6 23 -13 9 -8 36 -22 61 -32 42 -17 93 -18 750 -20
727 -1 753 0 829 40 84 43 159 139 177 225 10 50 6 200 -6 200 -3 0 -14 18
-24 41 -39 81 -117 142 -226 177 -27 9 -1441 9 -1446 0z"/>
</g>
</svg>
